<svg xmlns="http://www.w3.org/2000/svg" xmlns:xlink="http://www.w3.org/1999/xlink" viewBox="0 0 136 70">
  <defs>
    <path id="a" d="M.06.74H49.3v44.6H.06z"/>
    <path id="c" d="M.06.28h49.23v32.59H.06z"/>
  </defs>
  <g fill="none" fill-rule="evenodd">
    <path fill="#636463" d="M15.82 44.23l-.06-.1a.7.7 0 0 0-.1-.1s-.24.1-.34.25c-.2.29.2.92.2.92-.34-.1-.55-.39-.56-.58 0-.26.24-.84.24-.84.08-.24.16-.57.24-.91.08-.34.15-.68.26-1.09.23-.8.57-1.69.75-2.48.15-.6.25-1.11.29-1.46.09-.86.19-2.47.25-3.53l.02-.47c0-.14.08-1.57.76-2.17.45-.39.88-.32 1.4-.57 0 0-.75-.3-1.66-.1 0 0-1.57 1.24-2.32 6.75 0 0-.92 5.14-.95 5.66-.01.27.24 1.57.24 1.57s.8.35.97.31c.1-.03.25-.04.48-.1.24-.07.38-.09.79.04-.96-.43-.77-.76-.9-1m6.69-18.42l.95.04c.28 0 .45-.08.43-.26-.01-.15-.41-.23-.41-.23l-.69.1s-.08.3-.28.35m8.95 5c0-.07-.14-1.24-.14-2.13l-.01-.96c-.01-.27-.28-.15-.33-.04-.14.24-.2.19-.2.19s-.08-.02-.1.22c-.03-.18-.05-.16-.1-.21-.2-.19-.3.46-.3.46s-.02.13-.03.46v.23c0 .33.03.94.23 1.4.04.07.08.1.14.1 0 0-.06.45.08.67.27.42.42.33.42.33.48-.4.34-.55.34-.71m-11.25-1.1c0 .25.1.47.23.66-.24.22-.52.53-.57.6-.1.13-.32.2-.32.2s-.23 1.38.29 1.2c0 0 .08-.34.36-.28.47.1.6-.08.78-.22.13-.1.5-.02.5-.02.3-.06.65.08.7-.19v-.06c-.24-.2-.9-.1-.9-.1s.1-.05.24-.06c.05-.01.14 0 .15-.08 0 0 .06 0 .36.1.25.07.26-.05.28-.1 0-.1-.08-.16-.08-.16s-.32-.13-.47-.16c-.16-.02-.58.03-.58.03l.26-.06c.1-.02.18-.02.17-.1 0 0 .18.02.41.13.17.08.25.08.3.05 0-.02.04-.06.05-.08v-.06c-.02-.13-.14-.19-.14-.19s-.5-.18-.64-.19c-.14-.02-.58.1-.58.1.11-.09.24-.1.38-.12.2-.04.17-.15.17-.15s.04.07.44.18c.1.04.4.18.31-.08a.77.77 0 0 0-.12-.13c.12-.18.2-.4.2-.63a1.11 1.11 0 0 0-1.07-1.14c-.07 0-.14.03-.22.04-.28.4-.63.78-.89 1.07m.7-.4a.6.6 0 0 1 .4-.16c.3 0 .55.26.55.57 0 .19-.1.34-.23.44l-.11-.04c-.05-.02-.33 0-.6 0l-.02-.02a.57.57 0 0 1 .02-.8m.04 15.13c-.54-.4-1.98.28-1.98.28s-.27.6.27.6c.29 0 .78.02 1.17-.06.32-.07.8.05 1.22.06.62-.17-.68-.88-.68-.88m-8.46-3.16c-.12.69-.38 1.89-.42 2.32-.04.43-.05 1.2-.05 1.2.16.1.36.18.44.21l.8-6.58s-.65 2.16-.77 2.84"/>
    <mask id="b" fill="#fff">
      <use xlink:href="#a"/>
    </mask>
    <path fill="#636463" d="M22.82 25.37l.66-.01c.47.03.61-.17.44-.36-.1-.1-.77-.1-.77-.1l-.45.16s.23.05.12.3" mask="url(#b)"/>
    <path fill="#636463" d="M47.76 31.48l-.24-13.85h.98l-4.21-8.35a1.29 1.29 0 1 0-1.16 0l-4.21 8.35h.98l-.08 4.05-.25-.97a7.58 7.58 0 0 0-7.52-5.68 7.6 7.6 0 0 0-5.36-5.72V6.59h.4L25.1 2.65a1 1 0 1 0-.9 0l-2 3.94h.4V9.3a7.6 7.6 0 0 0-5.35 5.72h-.19a7.58 7.58 0 0 0-7.33 5.68l-.26.97-.07-4.05h.97l-4.2-8.35a1.29 1.29 0 1 0-1.16 0L.8 17.63h.97l-.24 13.86H.26L0 45.34h11.18l-.24-13.87v-6.3a15.12 15.12 0 0 1 .85-4.47 5.61 5.61 0 0 1 7.32-3.34 5.6 5.6 0 1 1 11.09 0 5.61 5.61 0 0 1 7.32 3.33 14.44 14.44 0 0 1 .84 4.48v6.3l-.24 13.87h11.19l-.26-13.87h-1.29zM4.63 20.75v-.15c.04-.5.46-.9.97-.9.27 0 .5.1.68.29.16.16.26.37.28.61v5.47H4.64v-5.32zm-.45 21.93H2.24v-5.14a.97.97 0 0 1 1.93 0v5.14zM5.6 36a1.46 1.46 0 1 1 0-2.92 1.46 1.46 0 0 1 0 2.92zm3.36 6.7H7.02v-5.15a.97.97 0 1 1 1.93 0v5.14zm33.78-22.1a.96.96 0 0 1 .97-.9c.51 0 .93.4.97.9v5.47h-1.94V20.6zm-.46 22.08h-1.93v-5.14a.97.97 0 0 1 1.93 0v5.14zM43.71 36a1.46 1.46 0 1 1 0-2.92 1.46 1.46 0 0 1 0 2.92zm3.35 6.7h-1.94v-5.15a1 1 0 0 1 .98-.9c.5 0 .92.4.96.9v5.14z" mask="url(#b)"/>
    <path fill="#636463" d="M26.65 28a.8.8 0 0 0 .33-.07c.2-.08.49-.34.6-.6a.53.53 0 0 0-.26-.55.32.32 0 0 0-.27 0c-.1.03-.34.15-.34.15.08-.07.04-.22.04-.22.17.12.88-.2.74-1.01-.02-.17-.05-.22-.05-.3 0-.14.02-.25 0-.36-.02-.14.06-.42.04-.55-.01-.13-.22-.1-.3-.06-.29.12-.3.58-.33.73l-.09-.04c-.06-.02-.07-.07-.14-.14a10.69 10.69 0 0 0-.87-.97c-.18-.15-.3 0-.3.1-.02.14.33.62.33.62.28.38.36.42.36.42l-.07.06s.03-.05-.37-.48c-.05-.04-.4-.55-.55-.7-.15-.16-.3 0-.33.06-.1.19.5.9.5.9a2 2 0 0 0 .46.5l-.08.07c.05-.04-.46-.58-.46-.58-.2-.2-.37-.48-.53-.6-.2-.15-.27.2-.16.34.03.05.1.2.25.4.14.18.62.63.62.63l-.05.04c-.12-.15-.5-.53-.76-.71-.26-.18-.33.05-.27.18.06.12.34.46.41.53.07.08.58.45.62.5l.23.33c.06.09.24.35.35.44 0 0 .22.14.36.08-.13.35 0 .75.34.85"/>
    <path fill="#636463" d="M25.77 43.01l-.14.81c-.25 1.4.05 1.9.05 1.9s.46-.37.7-1.77l.98-5.6c-.12-1.1-.18-2.15.1-2.4.16-.15.48-.4.39-.33l.26-1.47 1.28.48c-.53.2-.87.48-1.26.77-.76 1.18-.45 2.73-.37 3.26.1.61-.19 1.52-.19 1.52.13 1.47.38 2.34.38 2.34s.3.76.86.95c0 0-.6-.09-.69-.28 0 0-.15.15-.2.3 0 0-.57.38-.37.73-.2.2-.2.23-.46.39-.24.16-.29.2-.71.37-.14.05-.33.17-.38.27-.02.07.04.09.05.06.08-.1.21-.16.21-.16-.18.1-.17.2-.11.25h.02c.04.02.1 0 .18-.13.03-.06.1-.12.25-.17-.04.03-.33.14-.2.32.17.08.27-.15.3-.2.13-.12.24-.12.42-.17-.4.12-.44.19-.33.37.1.1.34.11.56.03.36 0 .89-.3 1.22-.3.13-.02.13 0 .34.06.12.04.48.04.54-.08.22-.43-.52-.9-.65-.96-.13-.07-.45-.3-.45-.3a5.43 5.43 0 0 0 1.28.5c.5.07.74-.17 1.21-.21 1.13-1.02 1.34-1.54 1.7-3.1.14-.62.39-1.58.45-2.32a14.2 14.2 0 0 0-.02 1.61c.03.6.1 2.56.05 2.88-.05.32-.22.4-.22.4s.29.73.93.81c.15.02.33 0 .52-.07 0 0 .64.48 1.58.17.14-.05.3-.12.47-.22.1-.06.12-5.1.07-5.77-.04-.45-.08-.57-.22-.79a2.54 2.54 0 0 0-.49-.66s-.18-.12-.16-.44c.04-.51.11-.47.28-.25.31.42.3.82.37 1.35 0 0 .15.2.37.58.12.21.07.6.09.93 0 0 .03 4.49.01 4.92.06-.16.2-.32.2-.32s.01-5.54-.14-6.72c-.04-.3-.18-.44-.22-.7-.1-.8-.13-1-.33-1.3 0 0 .23.18.45.72.15.36.26.88.38 1.6l.23 1.06c.12-1.87-.24-2.65-.24-2.65a6.42 6.42 0 0 0-.5-1.1c-.21-.34-.42-.6-.48-.68-.78-1.28-.89-1.68-1.69-3.23-.8-1.54-.6-2.84-.6-2.84s.16.56.35.72c.07.06.25.42.17.9-.02.14.02.6.43 1.42.5 1 .94 1.78 1.23 2.15.27.33.41.29.41.29-.14-1.19-1.16-5-1.16-5s.39.23.55.9c.06.23.17.98.37 1.77a99.97 99.97 0 0 0 1.14 4.06c-.3-1.93-.21-1.93-.4-2.7-.11-.46-.06-1.12-.15-1.77l-.2-1.52c-.1-1.92-.7-2.04-.7-2.04.26-.73-.09-.92-.09-.92-.15-.1-.5-.22-.62-.16-.25.16-.19-.21-.44-.09-.16.08-.55.2-.55.2.74-.56.43-.73.43-.73-.68.92-1.62.83-1.62.83-.28.03-.55.02-.72 0-.11 0-.18.1-.23.21l-.05-.06c.05-.08.1-.16-.05-.27a.45.45 0 0 1-.12-.13s-.12-.26-.01-.45c.08-.15.2-.25.2-.45-.2-.01-.5.06-.6.19l-.34.36c-.13.12-.2.28-.27.54-.06.23.23.36.23.36s-.6-.08-.24-.59c-.06.06-.3.15-.44.26-.14.1-.23.4-.31.56-.1.16-.24.47-.33.57-.09.1-.37.65-.34.84.08-.13.38-.26.38-.26a.74.74 0 0 1 .38-.05c.14.02.14.05.39-.18.23-.22.3-.5.6-.7.19-.11.44-.22.6-.3.02.06.06.1.12.13.04.01.09 0 .13-.04a11.05 11.05 0 0 0-.04 1.42c.06.6.18.87.26 1.15 0 0-.38-.62-.43-.95 0 0-.03 2.08.19 2.52l-.3.24-.07.05a15 15 0 0 1-.3.22c-.17.1-.51.3-.59.33-.08.04-.18.02-.33.02-.15 0-.22.1-.32.18 0 0-.4.08-.5.02a9.69 9.69 0 0 1-.69-.5c.18-.05.33-.15.36-.3a.42.42 0 0 0-.08-.26l-.62-.35c.46-.05.55.05.75-.13l.88-.75c.3-.24.21-.7.27-1 .04-1.09-1.04-.51-1.04-.51l-.1.27c-.01.06-.17.1-.21.07.79.52.34 1.15.34 1.15s.35-.62-.3-.8c-.81-.24-1-.95-1.1-1.1-.25-.33-.46.07-.67.13-.15.04-.2.05-.52 0-.22-.03-.33-.2-.4-.31-.07-.12-.05-.33-.05-.33s-.23.22-.05.53c.19.31.34.84.4 1.02a4.8 4.8 0 0 0 1.19 1.85c-.11.07-.2.15-.22.25-.02.17.09.34.29.46l-.01.04-.46.23c-.16.1-.26.2-.28.3 0 .14.09.14.26.04l.48-.2c.1-.04.2 0 .2 0s-.72.31-.85.38c-.09.05-.22.15-.2.3.01.09.1.12.17.09.07-.04.47-.18.56-.22.17-.06.13-.03.2-.02 0 0-.77.34-.83.38-.06.03-.1.12-.1.19.02.08.1.14.17.1.06-.01.42-.18.52-.22a.2.2 0 0 1 .19.01s-.68.3-.7.33c0 0-.03.04-.02.07l-1.18-.42-.2 1.18 1.63-.02-1.16 6.55a2.7 2.7 0 0 1-.43 2.45zm4.52-4c-.14-.6-.86-1.94-.41-1.97.19-.02 1.26.93 1.75.93.5 0 .63-.23.72-.4.37-.66.57-.75.57-.75a3.9 3.9 0 0 0-.46.76c-.17.35-.38.73-.58 1.15a21.02 21.02 0 0 1-1.82 2.89 6.4 6.4 0 0 0 .23-2.6zm2.74-.8c0-.2-.03-.33-.1-.35-.03.02-.3.26-.47.76-.15.5-.3.87-.78 2.1-.79 2.05-1.38 2.39-1.38 2.39.13-.45-.19-1-.19-1 .72-.77 2.85-4.7 3.17-5.06.32-.37.4-.22.4-.22-.37.29-.56.82-.65 1.38zm.52 5.08c.06-.23.08-3.07.08-3.07.09 1.06.45 3.53.45 3.53-.42-.05-.59-.23-.53-.46zm2.39-4.3c-.13-.89-.15-1.1-.42-1.54 0 0 .61.6.66 1.73.05 1.11-.06 4-.14 4.79 0 0-.49.61-.83-.44 0 0 .34.2.47-.62.13-.83.39-3.02.26-3.92zm-4.06-12.2c.59.15.8.06 1.01 0-.05.23-.52.22-.52.22.1.05.27.24.36.39.2.32-.27.14-.27.14-.03-.43-.58-.74-.58-.74zm.16 2.73c.05.22.12.68.21 1.08a6.3 6.3 0 0 1-.46.42c.44-.38.3-1.27.25-1.5zm-4.8 3.8a.7.7 0 0 0 .32.01l.52-.17c.16-.05.16-.03.2-.15.05.28.21.4.48.44.33.04.52-.21.76-.2 0 0 .27.02.32.01l.05.17c.26.2.43-.07.33-.28 0 0 .14.16.37.17.3.02.93-.15 1.24-.26.34-.12 1-.37 1.08-.58.07-.15-.26-.73-.39-1.08l-.15-.36c.06.15.21.46.39.8l.08.17a16.96 16.96 0 0 0 .76 1.26c.3.32.55.47.73.79-.28-.41-.58-1.78-.73-2.3-.16-.51-.68-1.46-.82-1.7a6.08 6.08 0 0 1-.39-1.33c-.04-.35.01-.8.01-.8s.57 1.71.63 1.96c.05.25.65 2.1.77 2.36.13.26.9 2.4 1.1 2.63a7.87 7.87 0 0 1 1.07 1.35c-.22-.3-.53-.4-.53-.4-.24-.18-.23-.29-.25-.4a1.35 1.35 0 0 0-.29-.55 1.52 1.52 0 0 1-.3-.36c-.1-.14-.18-.3-.27-.46 0 0-.55-.5-.9-.67-.38-.19-.58-.3-.86-.17-.86.38-1.76.42-1.84.41-.78-.12-.3.24-.3.24.43.09.4.24 1.42.3a8.3 8.3 0 0 1 1.6.15c.51.1.79.4.79.4a2.8 2.8 0 0 0-1.63-.12c-1.13.2-2.17-.73-2.17-.73-.7-.32-.62.11-.52.22.15.16.27.24.27.24-.48-.17-.26.15-.26.15.33.17.55.36.55.36 1.32 1.22 2.26 1.42 2.84 1.33.08-.02.25-.09.33-.07-.22.1-.28.17-.36.23-.28.23-.96.35-1.48.42a2.6 2.6 0 0 1-1.6-.24c-.14-.12-.19-.53.11-.62.4-.12.5-.25.52-.49.02-.16-.36-.56-.36-.56-.62-.34-.84-.12-.84-.12l.2-1.18h-.77a.96.96 0 0 1-.34.01l-.06-.02h-.46l.03-.17-.16-.09s-.12 0-.22.04l-.34.1-.27-.09zm6.29 2.26s-.62.41-1.51-.1a10 10 0 0 1-1.3-.83s.89.42 1.48.3c.58-.13.81-.25 1.36-.25 0 0-.9.27-.84.75.02.18.4.23.8.13zm-13.75-2.93l.02-.05-.02.05m-2-3.86s.06.89.38 1.05c.36.18.58.6 1.07.37 0 0 1.8-1.68 1.8-2.39a.78.78 0 0 1-.34-.44c.15.31.45.48.64.31.44-.39.43-.46.43-.46.28.05.58-.27.56-.36a.3.3 0 0 0-.1-.2c.28.2.4-.21.4-.21a.41.41 0 0 0 .18-.18l-.05-.05c.45.05.83-.17.83-.17.05-.04.05-.08.04-.1-.04-.07-.16-.11-.16-.11l-1.15.08c-.23.06-.12.27-.13.41-.01.18-.07.23-.07.23.07-.15.04-.2-.03-.35-.06-.14-.17-.09-.13-.18.05-.1.13-.2.37-.23.19-.02.43-.37.45-.63 0-.07-.03-.1-.07-.12-.11-.04-.36.1-.46.15-.08.06-.46.15-.46.15s.15-.03.31-.12.46-.27.55-.27c.09 0 .41-.07.51-.07.54-.17.28-.4.17-.4-.06-.01-.63.1-.72.1-.1 0-1.05.45-1.17.5a3.3 3.3 0 0 0-.47.9c-.04.14-.2.55-.2.55-.26-.07-.4.2-.5.33-.14.15-.66.82-.75.92-.09.1-.82.55-.82.55-.2.34-.07.6-.08.56 0 0-.17-.18-.12-.48 0 0 .08-.2.02-.34l-.14-.2-.1-.14s-.6-.37-.5 1.04"/>
    <path fill="#636463" d="M21.23 31.91l.06.68c-.62.08-1.22.19-1.7.28-.24.21-.63.4-1.04.56.03.16.1.28.15.27 0 0 1.31 0 2.68-.12.06.65.12 1.38.2 2.12.06.16.19 1.36.12 1.47a7.18 7.18 0 0 0-4.1-2.73c-.28-.02-.46-.02-.51.45 0 0-.06.71-.03 1.1.02.3.17.8.36.87.2.06.43.02.43.02-.06.01-.24.13-.35.2-.1.08-.35.22-.45.39-.1.17.36.05.36.05.03.14.26.09.26.09s.02.34.77-.06c.42-.23.63-.43.95-.53-.1.03-.3.19-.44.3-.25.2-.42.38-.66.56-.22.18-.95.48-1.5.62.1.1.33.03.33.03 0 1.32 2.02.21 2.02.21-1.63 1.33-2.28.02-2.68.55 1.89 1.29 3.94-.97 4.35-1.42.48-.5 1.08-.4 1.08-.4s0 .5-.06 1.13v-.02l.34 3.71c.06.63.06.86-.17.97-.3.15-.5.13-.8-.09a2.86 2.86 0 0 1-.52-.45v-.01c-.2-.25-.36-.5-.46-.7.26.18.48.19.61.16l.05-.01a.38.38 0 0 0 .13-.06l.1-.07-.1-.05-.05-.04a2.88 2.88 0 0 1-1.17-2.1c.03.26.16.83.7 1.13.9-1.16 1.24-1.99.76-2.54-.21-.25-1 .19-1.48.52a18.9 18.9 0 0 0-2.8 2.41s1.14-1.49.54-1.42c-.38.19-.59.77-.91 1.34-.27.52-.25.64-.75.87-.02 1.06 1.99-.13 2.71-.85.43-.43.56-.59.69-.94l-.04.1a3.1 3.1 0 0 0-.15.68c-.27.24-.16.16-.4.33l-.09.06c-.34.26-1.53 1.16-2.57 1.62-.47.2.03 1 .03 1-.09.54.68 1.08.68 1.08s.38.13.72-.09c.38.14.98-.1 1.55-.42.72-.41 1.38-.95 1.38-.95-.2-.2-.36-.26-.53-.33 0 0-.22-.07-.58 0-.38.07-.9.28-1.75.83 0 0 .82-.73 1.55-1.51.21-.23 0-.73 0-1.22.05.83.46 1.39.46 1.4l.18.24-.04-.3c-.04-.24-.01-.54.02-.77.24.73.5 1.2.72 1.5v.01c.23.31.43.47.58.59.44.34 1.11.8 1.58 1.1l.52.35.05.03.04-.05c.02 0 1.15-1.17 1.73-1.88.23-.28.65-.8.8-2.33.07.21.16.5.18.74l.02.17v.05-.05l.01.13.12-.28s.26-.61.14-1.4a2.92 2.92 0 0 0-1-1.78l-.18-.15.05.23c0 .01.32 1.5-.68 2.5l-.08.08.1.05c.02 0 .36.15.76-.26-.1.34-.3.9-.7 1.34-.25.28-.43.35-.77.27-.24-.06-.3-.29-.37-.9l-1.2-8.67a33.6 33.6 0 0 0 2.69-.49c.06-.01.1-.15.07-.32-.02-.18-.08-.31-.14-.3 0 0-1.37 0-2.76.13l-.1-.65H22h-.51a.6.6 0 0 0-.26.04m-8.07 11.92c.1-.29.05-1.34.05-1.34 0 .17-.04.77-.44 1.41-.14.23-.3 1.11-.3 1.11s.1.24.47.14c-.04-.63.06-.88.22-1.32m6-12.73s-.82.35-1.1.52c-.5.3-.68.84-.7 1.02-.05.32-.08.66.73.38 1.45-.51 1.43-.62 1.43-.62-.22-.16.03-1.23.03-1.23-.07-.1-.39-.07-.39-.07M29.79 8.48h3.78l-.84 3.68v.02-.02l2.35-2.95 2.37 2.97-.86-3.7h3.8l-3.43-1.63 2.37-2.96-3.4 1.65-.84-3.7-.83 3.7-3.4-1.66h-.02l2.37 2.96-3.42 1.64m3.84 49.98a14.65 14.65 0 0 1-8.98 3c-3.42 0-6.55-1.13-8.97-3a14.65 14.65 0 0 1-9.7 2.97c.85 1 1.77 1.92 2.78 2.76a14.21 14.21 0 0 0 6.92-2.87c2.42 1.87 5.55 3 8.97 3 3.43 0 6.56-1.13 8.98-3a14.25 14.25 0 0 0 6.92 2.87c1-.84 1.93-1.76 2.78-2.76-.26.02-.46.02-.73.02-3.42 0-6.55-1.12-8.97-2.99m9.7 2.97l.02-.01-.02.01m-26-40.05s-.21.13-.35.11c0 0-.28.21-.37.46a.58.58 0 0 1-.14.25c-.08.09-.17.13-.17.13 0 .05-.02.1-.04.16-.06.1-.15.26-.22.33-.12.12-.13.26-.1.3.05.1 0 .13-.03.24-.03.09.03.29.03.38-.02.23-.05.26-.1.36-.07.1.02.23.02.23a.31.31 0 0 1-.13.07c.15.38.6.34.78.31l.39.03c.14.01.41.08.54.05.37-.07.25-.42.24-.54-.03-.12-.24-.28-.24-.28s.18.08.35.08l-.02-.09-.14-.04c-.11-.02-.35-.03-.35-.03s.33-.07.56-.04l-.05-.3c.46.02.37-.25.3-.4a2.93 2.93 0 0 1-.15-.44l-.07-.26c0-.02.05-.12.04-.2-.06-.29-.05-.8-.05-.8a.58.58 0 0 1-.24-.07s-.14.06-.29 0m.21 1.3c-.06.04-.1.06-.18.02-.1-.05 0-.15-.24-.19 0 0 .04-.04.16-.07.2-.05.34.03.34.03s-.02.18-.08.21m.1-.26c-.12-.02-.18-.09-.34-.06a.98.98 0 0 1-.44.01s.17-.04.27-.1c.1-.06.36-.17.72.02 0 0-.1.14-.21.13"/>
    <path fill="#636463" d="M33.63 52.73c-2.42 1.87-5.55 3-8.98 3-3.42 0-6.55-1.13-8.97-3-2.42 1.87-5.55 3-8.98 3a14.9 14.9 0 0 1-4.75-.77 24.52 24.52 0 0 0 1.71 3.32c.99.2 1.98.31 3.04.31 3.43 0 6.56-1.13 8.98-3 2.42 1.88 5.55 3 8.97 3 3.43 0 6.56-1.13 8.98-3a14.67 14.67 0 0 0 12.02 2.69 24.39 24.39 0 0 0 1.7-3.32 15 15 0 0 1-13.72-2.23M14.43 23.9l.05-.22c.04-.23.15-.41.15-.41-.25.83.14 1.13.08 1.08 0 0-.13-.32.08-.58 0 0-.06.27.01.34 0 0 .01-.24.16-.43a.93.93 0 0 0 .2-.4c.04-.22.07-.31.12-.4 0 0-.05.12-.07.36 0 .14 0 .16-.05.28-.08.23-.24.69.11.93 0 0-.18-.38 0-.62 0 0-.04.38.17.46 0 0-.07-.29.04-.53.08-.16.08-.34.08-.41 0 0 .07.25 0 .43-.06.13-.04.33.06.43 0 0-.07-.13.06-.3.13-.17.2-.38.16-.56-.06-.24-.23-.36.07-.76 0 0-.05.3 0 .47a.34.34 0 0 1 0-.2c.06-.24.13-.18.06-.44-.04-.16.13-.32.13-.32s-.02.03-.02.12c0 .04.03.1.05.14a.9.9 0 0 1 .03.18c.05-.09.03-.28.02-.42-.01-.18.08-.35.08-.35s-.02.07 0 .25c0 .13.04.23.04.32 0 0 .09-.02.1-.26.02-.2.08-.29.07-.45.1.13.04.44.04.44.16-.2.09-.3.06-.46-.02-.15.15-.25.15-.25-.07.07-.05.24.04.24.08.01.22-.1.22-.1s.28-.06.28-.3c0 0 .11.27.3.05 0 0 0 .09.06.14.23.07.13-.34.13-.34s.06.04.1.1c.13.17.06-.13.06-.13-.17-.3-.8-.44-1.11-.47-.3-.04-.65-.06-1-.04-.48.03-.71.23-.93.42-.22.18-.42.57-.62 1.44-.2.88-.43 1.58-.43 1.7.02.59.57.26.62-.17m4.91 10.19c-.66-.32-1.2-.51-1.2-.51-1 .24-.38.64-.24.7.46.19 1.14.54 1.86 1 .73.47 1.77 1.15 1.8.46-.37-.66-1.38-1.25-2.22-1.65m-6.67-22.6c-1.1 0-2.1-.43-2.86-1.11a4.99 4.99 0 0 0 8.87-3.11 4.96 4.96 0 0 0-4.96-4.96c-1.56 0-3 .73-3.9 1.85a4.2 4.2 0 0 1 7.07 3.11 4.22 4.22 0 0 1-4.22 4.22m1.38 14.05c-.04-.3.22-.39.36-.45 0 0-.2.01-.51.27-.1.08-.28.24-.38.36a5.3 5.3 0 0 0-.96 1.69 9.16 9.16 0 0 0-.44 2.56c-.02.47-.15 2.14-.19 3.2-.02.71-.06 1.16-.06 1.5-.02.32-.08 9.89-.08 9.89l.18-2.2.52-5.35s.25-2.04.3-3.32c.05-1.28.15-3.72.2-4.07a4.7 4.7 0 0 1 .44-1.49l-.25 7.95.08 2.36-.06 4.06.5 2.66c.15.08.39.1.67-.12l-.3-.8-.44-2.38s.13-.02.24-.12c.1-.1.17-.35.17-.35.03-.81.8-5.43 1.07-6.23.27-.81.38-2.9 2.4-4.15 0 0-.24-.23-.64-.3-.4-.07-.3-.1-.3-.1.15-.25-.28-.85-.28-.85-.48-.78-.76-.9-1.14-1.35-.5-.58-.04-.76-.04-.76.1.39.24.57.44.84.2.29.74 1.27.74 1.27s.2-1.42-.78-2.59a9.62 9.62 0 0 0-.69-.72l-.24-.23-.36-.36c-.03-.03-.03-.05-.04-.08.08.08.2.16.4.25.78.34 1.56.5 1.95.16.13-.1.14-.4.1-.5-.06-.14-.16-.2-.06-.5.04-.1.07-.21-.2-.23a.82.82 0 0 1-.6-.3l-.05-.25s-.11.03-.18 0c0 0-.12.15-.22.1 0 0-.2.13-.44.02l-.33.1c0 .21-.14.46-.14.46l-.36.46m1.34 4.55c.34.83.94.65.94.65-1.14.54-1.57 2.54-1.57 2.54.1-1.65.86-2.1.63-3.19m-.84-3.64l-.34-.15c-.17-.08-.4-.17-.54-.42-.08-.2.14-.45.24-.53 0 0-.33.36.64 1.1m10.1 40.73c-3.43 0-6.56-1.13-8.98-3a13.96 13.96 0 0 1-3.97 2.15c.9.56 1.85 1.06 2.83 1.5.4-.24.78-.5 1.14-.78A14.67 14.67 0 0 0 24.65 70c3.43 0 6.56-1.09 8.98-2.95.36.28.74.54 1.13.79a25.5 25.5 0 0 0 2.84-1.5 14.13 14.13 0 0 1-3.97-2.15 14.7 14.7 0 0 1-8.98 2.99"/>
    <g transform="translate(0 20)">
      <mask id="d" fill="#fff">
        <use xlink:href="#c"/>
      </mask>
      <path fill="#636463" d="M32.87 4.01c-.06-.15-.07-.5-.13-.72-.03-.12-.16-.3-.28-.47 0 0 .13.16.37.3.21.13.4.41.4.54 0 0-.07-.12-.22-.1-.1.02-.17.25-.14.45.22.26.28-.1.28-.1s.1.08.05.22c0 0 .13.15.3-.05.1-.13.12-.6-.38-.96s-.5-.64-.5-.64.16.22.44.33c.28.11.42.26.5.45 0 0-.05-.1-.3-.14 0 0 .59.61.4 1 0 0 .26-.2.1-.56 0 0 .18.16.18.31 0 0 .2-.26-.22-.7-.22-.23-.2-.34-.25-.43-.05-.08-.1-.13-.24-.27-.14-.14-.15-.3-.23-.5 0 0 .05.13.2.21 0 0 .06-.4-.08-.56 0 0 .16.16.2.32.03.16.13.34.2.43.08.1.16.24.13.49-.04.26.2.33.25.38.05.05.33.27.29.6 0 0 .15-.22-.09-.61-.23-.4-.13-.5-.12-.53 0 0 .05.25.26.34 0 0 .06-.14-.29-.55-.35-.4-.58-.8-.57-1.28 0 0 .02.18.3.34 0 0-.1-.24-.14-.39-.04-.15-.1-.71-1-.88a4.57 4.57 0 0 0-1.63.34c-.25.18-.54.53-.5.92 0 .07.2.47.24.5v.27c0 .06-.06.18 0 .23.02.02.04.07.04.12 0 .15-.16.72-.16.83 0 .1.02.24.21.21a.63.63 0 0 0 .16-.04v.24c.07-.06.15-.05.23-.05l.35.02-.32.07c-.12.02-.18.01-.18.01l-.03.12s.28-.02.4-.11c0 0-.07.13-.16.17-.13.05-.18-.05-.24-.06 0 0 .13.04.14.19.01.15-.07.38.17.4a3.95 3.95 0 0 0 .72 0c.14-.04.79-.32.9-.65m-1.42-1.43c-.08.08-.02.21-.21.23-.16.01-.22-.24-.22-.24s.2-.1.37-.09c.15 0 .2.06.2.06s-.08-.02-.14.04m-.54-.05c-.1 0-.18-.05-.18-.05.17-.13.47-.23.63-.22.3.01.42.23.42.23-.5-.2-.77.04-.87.04m.96-.63c-.08-.02-.39.1-.67-.01-.28 0-.58-.32-.58-.32-.02-.1 0-.11.05-.1.06.02.1.12.14.18.04.07.17.17.39.24 0-.15-.1-.24-.1-.24s.13.13.25.16c.73.16.34-.18.34-.18.53.24.38.52.51.83-.06-.1-.08-.23-.13-.34-.1-.2-.2-.22-.2-.22m12.97 27.09h-4.49v-2.74h-4.48v2.74h-4.5v-2.74H26.9v2.74h-4.5v-2.74h-4.48v2.74h-4.49v-2.74H8.94v2.74H4.45v-2.74H.02c.06 1.87.34 3.69.8 5.43a14.99 14.99 0 0 0 14.85-1.81c2.42 1.87 5.56 3 8.98 3 3.43 0 6.56-1.13 8.98-3 2.42 1.87 5.55 3 8.98 3 2.1 0 4.09-.43 5.87-1.2.47-1.73.74-3.55.8-5.42h-4.43v2.74" mask="url(#d)"/>
    </g>
    <path fill="#636463" d="M15.25 26.4c-.27-.05-.2.13-.1.22.54.54 1.37 1.62 1.4 2.58 0 0 .63.24.73-.67a5 5 0 0 0-.21-1.72l.26.65c.27.72.17.97.29 1.63.05-.13.07-.3.09-.47l.02-.5c.03-.48.01-.91-.07-1.1-.1-.23-.16-.34-.2-.4l-.69-.87a.75.75 0 0 1-.23.43c-.24.3-.76.33-1.29.23m16.77-.21c.23.06.54.13.81.14.3-.03.6-.1.77-.21a1.99 1.99 0 0 0 .6-.68c.02-.02.02-.05.03-.08.04-.12.05-.34-.28-.6-.13-.09-.28-.42-.3-.44-.13.04-.25-.06-.25-.06-.18.05-.26-.06-.26-.06-.07.02-.2-.01-.27-.2.08.27-.48.54-.69.8-.17.21-.28-.06-.39.07 0 .17.07.22.07.3 0 0-.01.3-.03.38-.04.18-.1.57.19.64m3.88 18.66c-.04-.19-.12-.17-.32-.09-.14.07-.41-.06-.58-.1-.16-.04-.18.02-.32.05a.88.88 0 0 1-.34-.03c-.4-.05-.38.4-.38.4l.07.14c.1.08.19.1.25.13.06.02.05.06.08.1 0 0 .52.39.81.06.07-.15-.31-.4-.27-.37 0 0 .2.1.31.23.12.15.31.24.44.12.1-.17-.3-.45-.3-.45s.19.1.3.24c.13.16.24.2.29 0-.08-.17-.27-.31-.27-.31s.09.04.18.14c.12.1.22.07.2-.13-.03-.05-.15-.13-.15-.13M63.1 22.2l-1.21 3.82h2.44L63.1 22.2zm2.61 8.14l-.83-2.6h-3.54l-.86 2.6h-2.12l3.83-10.56h1.8l3.83 10.56h-2.1zm7.35-8.14l-1.21 3.82h2.45l-1.24-3.82zm2.61 8.14l-.83-2.6H71.3l-.86 2.6h-2.11l3.82-10.56h1.81l3.83 10.56h-2.12zm6.65-8.85H81v2.92h1.3c1.29 0 1.85-.45 1.85-1.5 0-1.02-.53-1.42-1.84-1.42zm2.11 8.85l-2.42-4.22h-1v4.22h-2.02V19.78h3.52c1.54 0 2.24.2 2.87.78.57.53.86 1.3.86 2.3 0 .8-.2 1.46-.58 1.98-.4.51-.76.73-1.64.97l2.62 4.53h-2.2zm11.17 0v-4.53h-5.42v4.53h-2.02V19.78h2.02V24h5.42v-4.22h2.02v10.56H95.6m11.8-.56a4.9 4.9 0 0 1-2.97.77 4.9 4.9 0 0 1-3-.77c-1.08-.75-1.43-1.63-1.43-3.57v-6.43h2v6.55c0 1.57.81 2.35 2.5 2.35 1.53 0 2.35-.83 2.35-2.35v-6.55h2.01v6.43c0 1.94-.35 2.8-1.45 3.57m9.75-7.49a7.21 7.21 0 0 0-2.74-.75c-.94 0-1.55.38-1.55.98 0 .45.25.72 1 1.12a15.3 15.3 0 0 1 3.17 2.03c.45.45.73 1.15.73 1.89 0 1.89-1.38 3-3.72 3a6.3 6.3 0 0 1-3.15-.8 34.9 34.9 0 0 1-.69-.33l.85-1.86c.77.42 1.09.58 1.5.74.53.2 1.1.3 1.52.3.93 0 1.54-.41 1.54-1.05 0-.45-.24-.75-.93-1.14l-1.63-.93c-1.87-1.07-2.45-1.77-2.45-2.92 0-.53.16-1.08.42-1.48.17-.27.44-.54.78-.78.77-.53 1.42-.7 2.66-.7.7 0 1.33.07 1.98.27.52.16.8.27 1.5.6l-.8 1.81M63.9 45.34l-3.52-5.02v5.02h-2.02V34.78h2.02v4.93l3.31-4.93h2.33l-3.64 5.14 3.83 5.42h-2.3m7.89-9.01c-2 0-3.48 1.6-3.48 3.73 0 2.15 1.48 3.73 3.48 3.73 1.98 0 3.45-1.58 3.45-3.73 0-2.13-1.47-3.73-3.45-3.73zm0 9.22c-3.3 0-5.62-2.27-5.62-5.49 0-3.26 2.27-5.47 5.62-5.47 3.33 0 5.6 2.2 5.6 5.47 0 3.22-2.32 5.5-5.6 5.5zm16.46-.2V37.6c-.08.54-.07.62-.4 1.5l-2.42 6.24h-1.81l-2.2-6.13c-.23-.6-.25-.78-.4-1.68v7.81h-1.84V34.78h2.42l2.82 7.54c.11.3.16.41.2.81.07-.5.1-.56.2-.81l2.93-7.54h2.42v10.56h-1.92m13.61 0V37.6c-.08.54-.06.62-.4 1.5l-2.41 6.24h-1.81l-2.21-6.13c-.23-.6-.24-.78-.4-1.68v7.81H92.8V34.78h2.42l2.82 7.54c.1.3.16.41.2.81.07-.5.1-.56.2-.81l2.92-7.54h2.42v10.56h-1.92m11.77-.56c-.77.53-1.67.77-2.98.77a4.9 4.9 0 0 1-3-.77c-1.08-.75-1.44-1.63-1.44-3.57v-6.43h2v6.55c0 1.57.82 2.35 2.5 2.35 1.54 0 2.36-.83 2.36-2.35v-6.55h2.01v6.43c0 1.94-.35 2.8-1.45 3.57m10.82.66l-4.53-6.83-.22-.42a.9.9 0 0 0-.13-.22c-.06-.13-.1-.2-.14-.37v7.74h-1.92V34.78h2.32l4.43 6.95c.02.03.07.1.11.22l.1.2.1.28.1.2v-7.85h1.9v10.66h-2.12m4.71-.1V34.78h6.44v1.71h-4.42v2.61h3.62v1.71h-3.62v2.82h4.63v1.71h-6.65"/>
  </g>
</svg>
